<?xml version="1.0" standalone="no"?><!DOCTYPE svg PUBLIC "-//W3C//DTD SVG 1.1//EN" "http://www.w3.org/Graphics/SVG/1.1/DTD/svg11.dtd"><svg t="1718182394708" class="icon" viewBox="0 0 1024 1024" version="1.1" xmlns="http://www.w3.org/2000/svg" p-id="1522" xmlns:xlink="http://www.w3.org/1999/xlink" width="128" height="128"><path d="M357.68387865 481.12605763l0 61.74788475c0 8.5324824-6.91317916 15.45724868-15.44566153 15.45724868s-15.44566155-6.92476629-15.44566155-15.45724868l0-61.74788475c0-8.55275989 6.91317916-15.47897458 15.44566155-15.47897459s15.44566155 6.92476629 15.44566153 15.47897459z" fill="#F6BB42" p-id="1523"></path><path d="M666.56524491 295.78246427c0 204.70426082-165.95975161 370.65242529-370.66256403 370.65242529-46.00819945 0-90.06975889-8.39633346-130.72469831-23.71598483C218.03128672 782.914644 353.42994881 882.64663172 512.12456179 882.64663172c204.70281243 0 370.65242529-165.94961286 370.65242528-370.66401244 0-158.6728871-99.73198771-294.09327507-239.92772698-346.91471457 15.32109975 40.64624906 23.71598482 84.68318581 23.71598482 130.71455956z" fill="#FFCE54" p-id="1524"></path><path d="M851.88566399 481.12605763c0 204.68108654-165.94816446 370.62925101-370.65242529 370.629251-94.45983768 0-180.66962957-35.34802794-246.11670971-93.50969196C303.00849628 834.55709172 401.93662595 882.64663172 512.12456179 882.64663172c204.70281243 0 370.65242529-165.94961286 370.65242528-370.66401244 0-110.15462279-48.0909884-209.09433961-124.42129254-276.98341012 58.20221902 65.44418335 93.52996945 151.66845917 93.52996946 246.12684847z" fill="#F6BB42" p-id="1525"></path><path d="M342.23821711 326.65061308c8.5324824 0 15.44566155 6.92476629 15.44566154 15.48042298 0 8.5093081-6.91317916 15.43407441-15.44566154 15.43407438s-15.44566155-6.92476629-15.44566154-15.43407438c0-8.55565668 6.91317916-15.48042297 15.44566154-15.48042298z" fill="#4A89DC" p-id="1526"></path><path d="M496.67890025 403.86588526c8.52089525 0 15.44566155 6.92476629 15.44566154 15.47897458 0 8.5093081-6.92476629 15.43407441-15.44566154 15.4340744-8.5324824 0-15.44566155-6.92476629-15.44566155-15.43407441 0-8.55420828 6.91317916-15.47897458 15.44566155-15.47897458z" fill="#48CFAD" p-id="1527"></path><path d="M311.09777045 141.35336828c8.5324824 0 15.44566155 6.92476629 15.44566154 15.4340744 0 8.50785971-6.91317916 15.43262602-15.44566155 15.43262601-8.53103399 0-15.44421315-6.92476629-15.44421313-15.43262601 0-8.5093081 6.91317916-15.43407441 15.44421314-15.4340744z" fill="#ED5564" p-id="1528"></path><path d="M156.65708733 419.34341144c8.5324824 0 15.44566155 6.87986613 15.44566154 15.4340744 0 8.5093081-6.91317916 15.43407441-15.44566154 15.43407441-8.52089525 0-15.43407441-6.92476629-15.43407441-15.43407441a15.41669368 15.41669368 0 0 1 15.43407441-15.4340744z" fill="#AC92EB" p-id="1529"></path><path d="M280.45701933 511.98261928c0 8.5324824 6.92476629 15.45724868 15.44566155 15.45724869l92.67107247 0c8.52089525 0 15.43407441-6.92476629 15.43407441-15.45724869 0-8.5093081-6.91317916-15.43407441-15.4340744-15.4340744l-92.67107249 0c-8.52089525 0-15.44566155 6.92476629-15.44566154 15.4340744z" fill="#FFCE54" p-id="1530"></path><path d="M450.343364 249.43534088c0 8.55420828 6.91317916 15.43407441 15.44566155 15.4340744l92.64934659 0c8.55420828 0 15.45724868-6.87986613 15.45724869-15.43407439 0-8.50785971-6.90304041-15.43117762-15.45724869-15.43117763l-92.64934659 0c-8.53103399-0.00144839-15.44566155 6.92331791-15.44566155 15.43117763z" fill="#F6BB42" p-id="1531"></path><path d="M527.55863618 218.56864047l0 61.778301c0 8.5093081-6.91317916 15.43407441-15.4340744 15.4340744-8.5324824 0-15.44566155-6.92476629-15.44566154-15.4340744l0-61.778301c0-8.55420828 6.91317916-15.43407441 15.44566154-15.4340744 8.52089525 0 15.43407441 6.87986613 15.4340744 15.4340744z" fill="#FFCE54" p-id="1532"></path></svg>